<svg width="12" height="13" viewBox="0 0 12 13" fill="none" xmlns="http://www.w3.org/2000/svg">
    <g clip-path="url(#clip0_1_443)">
        <circle cx="5.99995" cy="6.7768" r="3.78462" fill="white" />
        <path
            d="M6 0.5C2.6915 0.5 0 3.1915 0 6.5C0 9.8085 2.6915 12.5 6 12.5C9.3085 12.5 12 9.8085 12 6.5C12 3.1915 9.3085 0.5 6 0.5ZM5.9545 8.2095C5.761 8.403 5.5065 8.4995 5.251 8.4995C4.9955 8.4995 4.7385 8.402 4.543 8.207L3.51135 7.20724C3.31289 7.01492 3.30794 6.69813 3.50029 6.49971C3.69261 6.30132 4.00933 6.29638 4.20774 6.48868L5.245 7.494L7.79294 4.99343C7.98997 4.80006 8.30637 4.80272 8.50013 4.99938C8.69418 5.19633 8.6918 5.5133 8.49483 5.70732L5.9545 8.2095Z"
            fill="#0DB166" />
    </g>
    <defs>
        <clipPath id="clip0_1_443">
            <rect width="12" height="12" fill="white" transform="translate(0 0.5)" />
        </clipPath>
    </defs>
</svg>
