<svg width="9" height="11" viewBox="0 0 9 11" fill="none" xmlns="http://www.w3.org/2000/svg">
    <path
        d="M4.32595 6.05556C5.85761 6.05556 7.10373 4.80944 7.10373 3.27778C7.10373 1.74611 5.85761 0.5 4.32595 0.5C2.79428 0.5 1.54817 1.74611 1.54817 3.27778C1.54817 4.80944 2.79428 6.05556 4.32595 6.05556ZM5.6665 6.82222C7.13261 7.28833 8.2715 8.495 8.63984 10.0022C8.7015 10.2544 8.51095 10.5 8.25095 10.5H5.27761L4.65761 8.335L5.6665 6.82222ZM0.011504 10.0022C0.379837 8.495 1.51873 7.28833 2.98484 6.82222L3.99373 8.335L3.37373 10.5H0.400393C0.140393 10.5 -0.0496071 10.2544 0.011504 10.0022Z"
        fill="#E11D48" />
</svg>
