<svg width="21" height="20" viewBox="0 0 21 20" fill="none" xmlns="http://www.w3.org/2000/svg">
    <path
        d="M0.5 15.0007V4.16732C0.5 2.32898 1.995 0.833984 3.83333 0.833984H5.5C5.88667 0.833984 6.27333 0.924818 6.61833 1.09732L9.2475 2.41232C9.3625 2.46982 9.49167 2.49982 9.62 2.49982H13.8333C16.1308 2.49982 18 4.36898 18 6.66648H8.85333C6.655 6.66648 4.68417 8.13815 4.05833 10.2523L1.83083 18.0348C1.01667 17.274 0.5 16.1998 0.5 15.0007ZM20.0775 9.18149C19.6783 8.64565 19.07 8.33815 18.4042 8.32732C18.3917 8.32732 18.3817 8.33398 18.3692 8.33398H8.85333C7.38833 8.33398 6.07417 9.31482 5.65833 10.719L3.31 18.9215C3.7375 19.0698 4.18917 19.1673 4.66667 19.1673H15.1317C16.9867 19.1673 18.59 17.974 19.1333 16.1615L20.41 11.0648C20.605 10.4132 20.4833 9.72732 20.0775 9.18149Z"
        fill="#1575FF" />
</svg>
