<svg width="20" height="20" viewBox="0 0 20 20" fill="none" xmlns="http://www.w3.org/2000/svg">
    <g clip-path="url(#clip0_1_484)">
        <path
            d="M20 2.91675C20 3.60841 19.4417 4.16675 18.75 4.16675H1.25C0.558333 4.16675 0 3.60841 0 2.91675C0 2.22508 0.558333 1.66675 1.25 1.66675H18.75C19.4417 1.66675 20 2.22508 20 2.91675ZM12.0833 16.6667H7.91667C7.225 16.6667 6.66667 17.2251 6.66667 17.9167C6.66667 18.6084 7.225 19.1667 7.91667 19.1667H12.0833C12.775 19.1667 13.3333 18.6084 13.3333 17.9167C13.3333 17.2251 12.775 16.6667 12.0833 16.6667ZM15.4167 9.16675H4.58333C3.89167 9.16675 3.33333 9.72508 3.33333 10.4167C3.33333 11.1084 3.89167 11.6667 4.58333 11.6667H15.4167C16.1083 11.6667 16.6667 11.1084 16.6667 10.4167C16.6667 9.72508 16.1083 9.16675 15.4167 9.16675Z"
            fill="white" />
    </g>
    <defs>
        <clipPath id="clip0_1_484">
            <rect width="20" height="20" fill="white" />
        </clipPath>
    </defs>
</svg>
