<svg width="24" height="24" viewBox="0 0 24 24" fill="none" xmlns="http://www.w3.org/2000/svg">
    <g clip-path="url(#clip0_1_540)">
        <circle cx="11.9999" cy="12.5538" r="7.56923" fill="white" />
        <path
            d="M12 0C5.383 0 0 5.383 0 12C0 18.617 5.383 24 12 24C18.617 24 24 18.617 24 12C24 5.383 18.617 0 12 0ZM11.909 15.419C11.522 15.806 11.013 15.999 10.502 15.999C9.991 15.999 9.477 15.804 9.086 15.414L7.02269 13.4145C6.62579 13.0298 6.61589 12.3963 7.00058 11.9994C7.38521 11.6026 8.01866 11.5928 8.41548 11.9774L10.49 13.988L15.5859 8.98687C15.9799 8.60012 16.6127 8.60544 17.0003 8.99875C17.3884 9.39265 17.3836 10.0266 16.9897 10.4146L11.909 15.419Z"
            fill="#0DB166" />
    </g>
    <defs>
        <clipPath id="clip0_1_540">
            <rect width="24" height="24" fill="white" />
        </clipPath>
    </defs>
</svg>
