<svg width="18" height="18" viewBox="0 0 18 18" fill="none" xmlns="http://www.w3.org/2000/svg">
    <path
        d="M12.75 13.4968V17.9995H15.75C16.9926 17.9995 18 16.9916 18 15.7482V8.90337C18.0002 8.5135 17.8488 8.13886 17.5777 7.85874L11.2043 0.964356C10.0797 -0.253128 8.18167 -0.32788 6.96491 0.79737C6.90711 0.850839 6.85143 0.906525 6.79802 0.964356L0.435762 7.85649C0.156551 8.13777 -0.000105416 8.51818 5.32206e-08 8.91462V15.7482C5.32206e-08 16.9916 1.00737 17.9995 2.25 17.9995H5.24999V13.4968C5.26402 11.4505 6.9152 9.77946 8.9088 9.73133C10.9691 9.68159 12.7343 11.3811 12.75 13.4968Z"
        fill="#1575FF" />
    <path
        d="M9 11.246C7.75737 11.246 6.75 12.2539 6.75 13.4973V18H11.25V13.4973C11.25 12.2539 10.2426 11.246 9 11.246Z"
        fill="#1575FF" />
</svg>
