<svg width="18" height="18" viewBox="0 0 18 18" fill="none" xmlns="http://www.w3.org/2000/svg">
    <g clip-path="url(#clip0_34_8099)">
        <path
            d="M10.0035 0.62473C9.72806 0.376808 9.37059 0.239624 9 0.239624C8.62941 0.239624 8.27194 0.376808 7.9965 0.62473L0 7.82173V15.6217C0 16.2583 0.252856 16.8687 0.702944 17.3188C1.15303 17.7689 1.76348 18.0217 2.4 18.0217H15.6C16.2365 18.0217 16.847 17.7689 17.2971 17.3188C17.7471 16.8687 18 16.2583 18 15.6217V7.82173L10.0035 0.62473ZM11.25 16.5195H6.75V12.75C6.75 12.1532 6.98705 11.5809 7.40901 11.159C7.83097 10.737 8.40326 10.5 9 10.5C9.59674 10.5 10.169 10.737 10.591 11.159C11.0129 11.5809 11.25 12.1532 11.25 12.75V16.5195ZM16.5 15.6195C16.5 15.8582 16.4052 16.0871 16.2364 16.2559C16.0676 16.4247 15.8387 16.5195 15.6 16.5195H12.75V12.75C12.75 11.7554 12.3549 10.8016 11.6517 10.0983C10.9484 9.39507 9.99456 8.99998 9 8.99998C8.00544 8.99998 7.05161 9.39507 6.34835 10.0983C5.64509 10.8016 5.25 11.7554 5.25 12.75V16.5195H2.4C2.16131 16.5195 1.93239 16.4247 1.7636 16.2559C1.59482 16.0871 1.5 15.8582 1.5 15.6195V8.48923L9 1.73923L16.5 8.48923V15.6195Z"
            fill="black" />
    </g>
    <defs>
        <clipPath id="clip0_34_8099">
            <rect width="18" height="18" fill="white" />
        </clipPath>
    </defs>
</svg>
