<svg width="18" height="18" viewBox="0 0 18 18" fill="none" xmlns="http://www.w3.org/2000/svg">
    <g clip-path="url(#clip0_34_8108)">
        <path
            d="M9 0C4.03725 0 0 4.03725 0 9C0 13.9628 4.03725 18 9 18H18V9C18 4.03725 13.9628 0 9 0ZM16.5 16.5H9C4.8645 16.5 1.5 13.1355 1.5 9C1.5 4.8645 4.8645 1.5 9 1.5C13.1355 1.5 16.5 4.8645 16.5 9V16.5ZM10.125 9C10.125 9.621 9.621 10.125 9 10.125C8.379 10.125 7.875 9.621 7.875 9C7.875 8.379 8.379 7.875 9 7.875C9.621 7.875 10.125 8.379 10.125 9ZM13.875 9C13.875 9.621 13.371 10.125 12.75 10.125C12.129 10.125 11.625 9.621 11.625 9C11.625 8.379 12.129 7.875 12.75 7.875C13.371 7.875 13.875 8.379 13.875 9ZM6.375 9C6.375 9.621 5.871 10.125 5.25 10.125C4.629 10.125 4.125 9.621 4.125 9C4.125 8.379 4.629 7.875 5.25 7.875C5.871 7.875 6.375 8.379 6.375 9Z"
            fill="#475569" />
    </g>
    <defs>
        <clipPath id="clip0_34_8108">
            <rect width="18" height="18" fill="white" />
        </clipPath>
    </defs>
</svg>
