<svg width="30" height="30" viewBox="0 0 30 30" fill="none" xmlns="http://www.w3.org/2000/svg">
<rect x="0.5" y="0.5" width="29" height="29" rx="3.5" stroke="white" stroke-opacity="0.8"/>
<path d="M21.5455 8.45455H20.0909V7H18.6364V10.6364H17.1818V8.45455H12.8182V7H11.3636V10.6364H9.90909V8.45455H8.45455C7.65236 8.45455 7 9.10764 7 9.90909V20.8182C7 21.6204 7.65236 22.2727 8.45455 22.2727H21.5455C22.3476 22.2727 23 21.6204 23 20.8182V9.90909C23 9.10764 22.3476 8.45455 21.5455 8.45455ZM12.0909 20.0909H9.18182V17.1818H12.0909V20.0909ZM12.0909 15.7273H9.18182V12.8182H12.0909V15.7273ZM16.4545 20.0909H13.5455V17.1818H16.4545V20.0909ZM16.4545 15.7273H13.5455V12.8182H16.4545V15.7273ZM20.8182 15.7273H17.9091V12.8182H20.8182V15.7273Z" fill="white"/>
</svg>
