<svg width="30" height="30" viewBox="0 0 30 30" fill="none" xmlns="http://www.w3.org/2000/svg">
<rect width="30" height="30" rx="4" fill="#1575FF"/>
<rect x="0.5" y="0.5" width="29" height="29" rx="3.5" stroke="white" stroke-opacity="0.8"/>
<path d="M19.1333 22.9997H9.53333C8.13333 22.9997 7 21.8663 7 20.4663V10.8663C7 9.46634 8.13333 8.33301 9.53333 8.33301H14.3333C14.7333 8.33301 15 8.59967 15 8.99967C15 9.39967 14.7333 9.66634 14.3333 9.66634H9.53333C8.86667 9.66634 8.33333 10.1997 8.33333 10.8663V20.3997C8.33333 21.0663 8.86667 21.5997 9.53333 21.5997H19.0667C19.7333 21.5997 20.2667 21.0663 20.2667 20.3997V15.6663C20.2667 15.2663 20.5333 14.9997 20.9333 14.9997C21.3333 14.9997 21.6 15.2663 21.6 15.6663V20.4663C21.6667 21.8663 20.5333 22.9997 19.1333 22.9997Z" fill="white"/>
<path d="M10.9987 19.6667C10.7987 19.6667 10.6654 19.6 10.532 19.4667C10.3987 19.3333 10.332 19.0667 10.332 18.8667L10.9987 15.5333C10.9987 15.4 11.0654 15.2667 11.1987 15.2L19.1987 7.2C19.4654 6.93333 19.8654 6.93333 20.132 7.2L22.7987 9.86667C23.0654 10.1333 23.0654 10.5333 22.7987 10.8L14.7987 18.8C14.732 18.8667 14.5987 18.9333 14.4654 19L11.132 19.6667H10.9987ZM12.2654 16L11.8654 18.1333L13.9987 17.7333L21.3987 10.3333L19.6654 8.6L12.2654 16Z" fill="white"/>
</svg>
