<svg width="306" height="148" viewBox="0 0 306 148" fill="none" xmlns="http://www.w3.org/2000/svg">
<g clip-path="url(#clip0_317_8904)">
<rect width="306" height="148" fill="url(#paint0_linear_317_8904)"/>
<g opacity="0.2">
<path opacity="0.1" d="M76.4129 185.492L21.1638 122.065C-6.77879 89.9862 -6.96864 37.9693 20.7398 5.89024L75.5258 -57.5367C103.234 -89.6154 148.355 -89.6154 176.297 -57.5367L231.546 5.89024C259.489 37.9693 259.679 89.9862 231.97 122.065L177.184 185.492C149.476 217.579 104.355 217.579 76.4129 185.492Z" stroke="url(#paint1_linear_317_8904)" stroke-miterlimit="10"/>
<path opacity="0.2" d="M27.5234 5.45451L82.3209 -54.8809C110.035 -85.4016 154.062 -84.1275 180.646 -52.0488L233.213 11.3781C259.804 43.4572 258.884 94.2083 231.17 124.721L176.373 185.056C148.659 215.577 104.632 214.303 78.0473 182.224L25.4804 118.797C-1.10364 86.7182 -0.190741 35.9666 27.5234 5.45451Z" stroke="url(#paint2_linear_317_8904)" stroke-miterlimit="10"/>
<path opacity="0.3" d="M34.3048 5.01212L89.1134 -52.2233C116.834 -81.1776 159.76 -78.6377 184.993 -46.559L234.871 16.868C260.103 48.9466 258.081 98.4243 230.36 127.379L175.552 184.614C147.832 213.568 104.905 211.028 79.6727 178.949L29.7948 115.522C4.56232 83.4436 6.58498 33.9664 34.3048 5.01212Z" stroke="url(#paint3_linear_317_8904)" stroke-miterlimit="10"/>
<path opacity="0.4" d="M41.1001 4.57709L95.9203 -49.5661C123.646 -76.9543 165.479 -73.1484 189.353 -41.0616L236.549 22.3653C260.423 54.4444 257.298 102.655 229.565 130.044L174.745 184.187C147.019 211.575 105.186 207.77 81.3126 175.683L34.1162 112.256C10.2422 80.1687 13.3676 31.9654 41.1001 4.57709Z" stroke="url(#paint4_linear_317_8904)" stroke-miterlimit="10"/>
<path opacity="0.5" d="M47.8799 4.13516L102.711 -46.9165C130.442 -72.7385 171.182 -67.6666 193.697 -35.5798L238.211 27.8475C260.727 59.9261 256.499 106.871 228.761 132.693L173.93 183.745C146.198 209.567 105.459 204.495 82.9431 172.408L38.4287 108.981C15.9132 76.8946 20.1413 29.957 47.8799 4.13516Z" stroke="url(#paint5_linear_317_8904)" stroke-miterlimit="10"/>
<path opacity="0.6" d="M54.6672 3.70156L109.509 -44.2584C137.246 -68.5141 176.885 -62.1682 198.049 -30.0895L239.882 33.3375C261.039 65.416 255.701 111.087 227.964 135.352L173.122 183.312C145.385 207.567 105.746 201.221 84.5817 169.142L42.7491 105.716C21.5921 73.6288 26.9301 27.9575 54.6672 3.70156Z" stroke="url(#paint6_linear_317_8904)" stroke-miterlimit="10"/>
<path opacity="0.7" d="M61.4511 3.26402L116.305 -41.5957C144.048 -64.2853 182.593 -56.6734 202.392 -24.5945L241.535 38.8323C261.334 70.9108 254.893 115.316 227.15 138.006L172.296 182.866C144.554 205.556 106.008 197.943 86.2097 165.865L47.0663 102.438C27.268 70.3591 33.7086 25.954 61.4511 3.26402Z" stroke="url(#paint7_linear_317_8904)" stroke-miterlimit="10"/>
<path opacity="0.8" d="M68.2347 2.82141L123.1 -38.9465C150.848 -60.0699 188.3 -51.192 206.74 -19.1135L243.209 44.3138C261.648 76.3923 254.105 119.532 226.357 140.655L171.492 182.423C143.743 203.547 106.291 194.669 87.8514 162.59L51.3825 99.1634C32.9427 67.0766 40.4861 23.9448 68.2347 2.82141Z" stroke="url(#paint8_linear_317_8904)" stroke-miterlimit="10"/>
<path opacity="0.9" d="M75.0259 2.38304L129.902 -36.2932C157.656 -55.8585 194.008 -45.7066 211.096 -13.6277L244.876 49.799C261.965 81.8775 253.311 123.743 225.558 143.309L170.681 181.985C142.927 201.55 106.575 191.398 89.4866 159.32L55.707 95.8923C38.6188 63.8055 47.2648 21.94 75.0259 2.38304Z" stroke="url(#paint9_linear_317_8904)" stroke-miterlimit="10"/>
<path d="M81.813 1.94741L136.701 -33.637C164.46 -51.6361 199.719 -40.2182 215.448 -8.13159L246.546 55.2957C262.276 87.3742 252.52 127.974 224.753 145.973L169.866 181.557C142.106 199.557 106.848 188.138 91.1178 156.052L60.0198 92.6167C44.2901 60.5382 54.0529 19.9384 81.813 1.94741Z" stroke="url(#paint10_linear_317_8904)" stroke-miterlimit="10"/>
<path d="M88.5934 1.50678L143.493 -30.9778C171.258 -47.4107 205.423 -34.7269 219.794 -2.63989L248.203 60.7868C262.574 92.8654 251.716 132.199 223.943 148.632L169.044 181.117C141.278 197.549 107.114 184.866 92.7427 152.779L64.3335 89.3516C49.9624 57.2648 60.8279 17.9312 88.5934 1.50678Z" stroke="url(#paint11_linear_317_8904)" stroke-miterlimit="10"/>
<path d="M95.3803 1.06441L150.291 -28.3284C178.062 -43.1951 211.126 -29.2372 224.139 2.84131L249.866 66.2686C262.878 98.3471 250.91 136.407 223.139 151.274L168.228 180.666C140.457 195.533 107.393 181.575 94.3805 149.496L68.6533 86.077C55.6406 53.9985 67.6091 15.9394 95.3803 1.06441Z" stroke="url(#paint12_linear_317_8904)" stroke-miterlimit="10"/>
<path d="M102.17 0.6254L157.092 -25.6753C184.869 -38.9758 216.839 -23.7521 228.494 8.32642L251.539 71.7537C263.193 103.832 250.122 140.626 222.345 153.926L167.423 180.227C139.646 193.528 107.676 178.304 96.0214 146.225L72.9762 82.7981C61.3151 50.7196 74.3862 13.9344 102.17 0.6254Z" stroke="url(#paint13_linear_317_8904)" stroke-miterlimit="10"/>
<path d="M108.956 0.186419L163.889 -23.0147C191.672 -34.7489 222.549 -18.2593 232.844 13.8192L253.201 77.2465C263.496 109.325 249.322 144.853 221.539 156.587L166.607 179.788C138.824 191.522 107.947 175.033 97.651 142.954L77.2952 79.5269C66.9925 47.4484 81.166 11.9289 108.956 0.186419Z" stroke="url(#paint14_linear_317_8904)" stroke-miterlimit="10"/>
<path d="M115.738 -0.253743L170.682 -20.3624C198.47 -30.5387 228.247 -12.7748 237.191 19.3119L254.866 82.7387C263.81 114.818 248.526 149.071 220.731 159.248L165.786 179.356C137.998 189.533 108.222 171.769 99.2773 139.682L81.603 76.2551C72.6659 44.176 87.9496 9.92278 115.738 -0.253743Z" stroke="url(#paint15_linear_317_8904)" stroke-miterlimit="10"/>
<path d="M122.523 -0.690652L177.478 -17.708C205.272 -26.3179 233.955 -7.28816 241.541 24.7986L256.534 88.2259C264.119 120.304 247.733 153.292 219.932 161.902L164.976 178.919C137.182 187.529 108.499 168.5 100.913 136.413L85.9209 72.9855C78.3421 40.9069 94.7284 7.91937 122.523 -0.690652Z" stroke="url(#paint16_linear_317_8904)" stroke-miterlimit="10"/>
<path d="M129.309 -1.12879L184.276 -15.0542C212.076 -22.0982 239.665 -1.79451 245.892 30.2846L258.203 93.7113C264.43 125.79 246.934 157.512 219.134 164.556L164.167 178.481C136.368 185.525 108.778 165.221 102.551 133.142L90.2404 69.7151C84.02 37.6284 101.509 5.91473 129.309 -1.12879Z" stroke="url(#paint17_linear_317_8904)" stroke-miterlimit="10"/>
<path d="M136.097 -1.56791L191.075 -12.3932C218.881 -17.8707 245.37 3.69925 250.238 35.7778L259.86 99.2045C264.728 131.284 246.13 161.731 218.324 167.209L163.346 178.034C135.54 183.512 109.052 161.942 104.183 129.863L94.5614 66.4362C89.6859 34.3576 108.284 3.9102 136.097 -1.56791Z" stroke="url(#paint18_linear_317_8904)" stroke-miterlimit="10"/>
<path d="M142.882 -2.00434L197.871 -9.73769C225.682 -13.6493 251.078 9.18639 254.588 41.2649L261.528 104.692C265.038 136.771 245.337 165.952 217.525 169.864L162.536 177.597C134.724 181.509 109.329 158.673 105.819 126.595L98.879 63.1675C95.3619 31.089 115.064 1.90726 142.882 -2.00434Z" stroke="url(#paint19_linear_317_8904)" stroke-miterlimit="10"/>
<path d="M149.595 -2.98556L204.595 -7.62755C232.412 -9.97265 256.714 14.1287 258.866 46.2073L263.124 109.635C265.275 141.713 244.471 169.629 216.654 171.974L161.653 176.616C133.836 178.961 109.534 154.859 107.383 122.781L103.118 59.3541C100.967 27.275 121.778 -0.640464 149.595 -2.98556Z" stroke="url(#paint20_linear_317_8904)" stroke-miterlimit="10"/>
<path d="M156.45 -2.8807L211.461 -4.43076C239.284 -5.20991 262.486 20.1577 263.286 52.2445L264.861 115.672C265.654 147.75 243.747 174.392 215.918 175.179L160.906 176.729C133.083 177.508 109.881 152.141 109.081 120.054L107.505 56.6268C106.713 24.54 128.627 -2.10156 156.45 -2.8807Z" stroke="url(#paint21_linear_317_8904)" stroke-miterlimit="10"/>
<path d="M163.234 -3.31748L218.257 -1.76796C246.085 -0.988819 268.194 25.6527 267.635 57.74L266.522 121.167C265.963 153.245 242.946 178.621 215.111 177.842L160.088 176.293C132.259 175.513 110.151 148.872 110.71 116.785L111.823 53.3578C112.388 21.271 135.405 -4.09663 163.234 -3.31748Z" stroke="url(#paint22_linear_317_8904)" stroke-miterlimit="10"/>
<path d="M170.026 -3.76036L225.06 0.881623C252.894 3.22672 273.909 31.1427 271.984 63.2213L268.19 126.648C266.272 158.727 242.146 182.837 214.312 180.483L159.278 175.841C131.443 173.496 110.428 145.581 112.353 113.502L116.147 50.075C118.065 17.9959 142.184 -6.10546 170.026 -3.76036Z" stroke="url(#paint23_linear_317_8904)" stroke-miterlimit="10"/>
<path d="M176.811 -4.19472L231.856 3.53918C259.696 7.45023 279.611 36.6319 276.335 68.711L269.858 132.138C266.582 164.216 241.353 187.052 213.513 183.141L158.468 175.407C130.628 171.496 110.714 142.314 113.989 110.235L120.466 46.8085C123.742 14.7294 148.964 -8.10633 176.811 -4.19472Z" stroke="url(#paint24_linear_317_8904)" stroke-miterlimit="10"/>
<path d="M183.594 -4.63536L238.651 6.19045C266.496 11.668 285.317 42.1154 280.683 74.194L271.524 137.621C266.89 169.7 240.558 191.27 212.712 185.792L157.656 174.966C129.81 169.489 110.989 139.041 115.623 106.963L124.782 43.5356C129.416 11.4571 155.748 -10.1129 183.594 -4.63536Z" stroke="url(#paint25_linear_317_8904)" stroke-miterlimit="10"/>
<path d="M190.376 -5.06864L245.444 8.85676C273.296 15.9008 291.023 47.6145 285.03 79.7012L273.183 143.128C267.19 175.207 239.755 195.511 211.897 188.467L156.829 174.541C128.978 167.497 111.25 135.784 117.243 103.697L129.09 40.2701C135.083 8.18336 162.525 -12.1122 190.376 -5.06864Z" stroke="url(#paint26_linear_317_8904)" stroke-miterlimit="10"/>
<path d="M197.16 -5.51361L252.239 11.5037C280.096 20.1137 296.723 53.0931 289.378 85.1798L274.849 148.607C267.498 180.686 238.96 199.715 211.096 191.114L156.017 174.096C128.16 165.486 111.533 132.507 118.877 100.42L133.407 36.993C140.758 4.90619 169.303 -14.1236 197.16 -5.51361Z" stroke="url(#paint27_linear_317_8904)" stroke-miterlimit="10"/>
<path d="M203.954 -5.94751L259.045 14.1617C286.908 24.3383 302.441 58.5915 293.739 90.6701L276.527 154.097C267.817 186.176 238.17 203.94 210.307 193.772L155.216 173.662C127.354 163.487 111.82 129.233 120.523 97.1541L137.734 33.7269C146.437 1.64011 176.084 -16.1235 203.954 -5.94751Z" stroke="url(#paint28_linear_317_8904)" stroke-miterlimit="10"/>
<path d="M210.735 -6.38446L265.837 16.8161C293.705 28.5504 308.145 64.0781 298.077 96.1567L278.184 159.584C268.122 191.662 237.365 208.16 209.497 196.418L154.395 173.217C126.526 161.483 112.086 125.955 122.155 93.8768L142.048 30.4495C152.109 -1.62906 182.86 -18.1269 210.735 -6.38446Z" stroke="url(#paint29_linear_317_8904)" stroke-miterlimit="10"/>
<path d="M217.521 -6.82494L272.635 19.4758C300.508 32.776 313.848 69.57 302.428 101.649L279.846 165.076C268.426 197.154 236.566 212.378 208.692 199.078L153.579 172.777C125.705 159.476 112.365 122.683 123.785 90.6041L146.367 27.1768C157.787 -4.90996 189.647 -20.1339 217.521 -6.82494Z" stroke="url(#paint30_linear_317_8904)" stroke-miterlimit="10"/>
<path d="M224.303 -7.26363L279.427 22.129C307.307 36.9958 319.554 75.0554 306.775 107.134L281.511 170.561C268.732 202.64 235.77 216.598 207.89 201.731L152.765 172.338C124.886 157.471 112.64 119.412 125.418 87.3332L150.682 23.9065C163.461 -8.1803 196.423 -22.1304 224.303 -7.26363Z" stroke="url(#paint31_linear_317_8904)" stroke-miterlimit="10"/>
<path d="M231.091 -7.70062L286.227 24.7839C314.112 41.2166 325.265 80.5425 311.128 112.629L283.182 176.056C269.045 208.135 234.98 220.827 207.087 204.394L151.952 171.909C124.066 155.477 112.913 116.151 127.05 84.064L154.996 20.6373C169.141 -11.4495 203.205 -24.1333 231.091 -7.70062Z" stroke="url(#paint32_linear_317_8904)" stroke-miterlimit="10"/>
<path d="M237.883 -8.14808L293.03 27.4361C320.921 45.4353 330.973 86.0269 315.484 118.114L284.849 181.541C269.354 213.619 234.186 225.037 206.288 207.046L151.14 171.462C123.249 153.463 113.197 112.871 128.686 80.7844L159.321 17.3576C174.816 -14.7215 209.984 -26.1391 237.883 -8.14808Z" stroke="url(#paint33_linear_317_8904)" stroke-miterlimit="10"/>
<path opacity="0.9" d="M244.664 -8.58697L299.823 30.0896C327.72 49.6548 336.678 91.5203 319.824 123.599L286.507 187.026C269.653 219.105 233.375 229.257 205.478 209.691L150.32 171.015C122.423 151.45 113.464 109.584 130.318 77.5056L163.635 14.0783C180.483 -18.0002 216.76 -28.144 244.664 -8.58697Z" stroke="url(#paint34_linear_317_8904)" stroke-miterlimit="10"/>
<path opacity="0.8" d="M251.449 -9.02438L306.619 32.7436C334.522 53.867 342.387 97.0065 324.174 129.085L288.176 192.512C269.97 224.591 232.582 233.477 204.68 212.345L149.51 170.577C121.607 149.454 113.742 106.315 131.955 74.2354L167.954 10.8087C186.159 -21.2704 223.547 -30.148 251.449 -9.02438Z" stroke="url(#paint35_linear_317_8904)" stroke-miterlimit="10"/>
<path opacity="0.7" d="M258.23 -9.46472L313.412 35.3952C341.32 58.0846 348.085 102.49 328.521 134.569L289.84 197.996C270.276 230.075 231.786 237.686 203.877 214.997L148.696 170.137C120.788 147.447 114.023 103.042 133.587 70.9629L172.268 7.53616C191.832 -24.5424 230.322 -32.1545 258.23 -9.46472Z" stroke="url(#paint36_linear_317_8904)" stroke-miterlimit="10"/>
<path opacity="0.6" d="M265.016 -9.90181L320.209 38.0577C348.123 62.3136 353.794 107.985 332.871 140.072L291.502 203.499C270.579 235.578 230.986 241.924 203.066 217.668L147.873 169.708C119.959 145.452 114.288 99.7809 135.21 67.6941L176.58 4.26686C197.51 -27.8117 237.102 -34.1577 265.016 -9.90181Z" stroke="url(#paint37_linear_317_8904)" stroke-miterlimit="10"/>
<path opacity="0.5" d="M271.806 -10.3399L327.01 40.7115C354.93 66.5339 359.508 113.471 337.226 145.558L293.175 208.985C270.893 241.064 230.198 246.144 202.271 220.321L147.068 169.27C119.148 143.448 114.57 96.5106 136.851 64.4239L180.903 0.996579C203.184 -31.0819 243.88 -36.1619 271.806 -10.3399Z" stroke="url(#paint38_linear_317_8904)" stroke-miterlimit="10"/>
<path opacity="0.4" d="M278.592 -10.7783L333.806 43.3656C361.732 70.7534 365.209 118.965 341.576 151.044L294.843 214.471C271.203 246.549 229.398 250.355 201.473 222.976L146.257 168.832C118.332 141.444 114.855 93.2324 138.487 61.1539L185.221 -2.27343C208.861 -34.3603 250.659 -38.1662 278.592 -10.7783Z" stroke="url(#paint39_linear_317_8904)" stroke-miterlimit="10"/>
<path opacity="0.3" d="M285.372 -11.2156L340.598 46.0197C368.53 74.9745 370.913 124.452 345.915 156.53L296.5 219.958C271.502 252.036 228.594 254.576 200.662 225.621L145.436 168.386C117.505 139.432 115.121 89.9547 140.119 57.8761L189.535 -5.55116C214.533 -37.6298 257.441 -40.1698 285.372 -11.2156Z" stroke="url(#paint40_linear_317_8904)" stroke-miterlimit="10"/>
<path opacity="0.2" d="M292.157 -11.6574L347.395 48.6774C375.331 79.1982 376.622 129.942 350.265 162.02L298.16 225.448C271.803 257.526 227.793 258.8 199.856 228.279L144.618 167.944C116.681 137.424 115.391 86.6801 141.748 54.6015L193.852 -8.82521C220.209 -40.9041 264.22 -42.1701 292.157 -11.6574Z" stroke="url(#paint41_linear_317_8904)" stroke-miterlimit="10"/>
<path opacity="0.1" d="M199.061 230.936L143.812 167.508C115.87 135.43 115.68 83.4123 143.388 51.3338L198.174 -12.0935C225.883 -44.172 271.003 -44.172 298.946 -12.0935L354.195 51.3338C382.138 83.4123 382.327 135.43 354.619 167.508L299.833 230.936C272.124 263.022 227.004 263.022 199.061 230.936Z" stroke="url(#paint42_linear_317_8904)" stroke-miterlimit="10"/>
</g>
</g>
<defs>
<linearGradient id="paint0_linear_317_8904" x1="-51.9862" y1="-63.0898" x2="287.791" y2="282.55" gradientUnits="userSpaceOnUse">
<stop stop-color="#5433FF"/>
<stop offset="0.5" stop-color="#20BDFF"/>
<stop offset="1" stop-color="#5433FF"/>
</linearGradient>
<linearGradient id="paint1_linear_317_8904" x1="32.3338" y1="-57.6653" x2="220.177" y2="-77.4519" gradientUnits="userSpaceOnUse">
<stop stop-color="#4E54C8"/>
<stop offset="1" stop-color="#4E54C8"/>
</linearGradient>
<linearGradient id="paint2_linear_317_8904" x1="37.5978" y1="-53.6137" x2="220.904" y2="-72.9235" gradientUnits="userSpaceOnUse">
<stop stop-color="#4E54C8"/>
<stop offset="1" stop-color="#4E54C8"/>
</linearGradient>
<linearGradient id="paint3_linear_317_8904" x1="42.8218" y1="-49.602" x2="221.654" y2="-68.4415" gradientUnits="userSpaceOnUse">
<stop stop-color="#4E54C8"/>
<stop offset="1" stop-color="#4E54C8"/>
</linearGradient>
<linearGradient id="paint4_linear_317_8904" x1="48.0206" y1="-45.6364" x2="222.459" y2="-64.014" gradientUnits="userSpaceOnUse">
<stop stop-color="#4E54C8"/>
<stop offset="1" stop-color="#4E54C8"/>
</linearGradient>
<linearGradient id="paint5_linear_317_8904" x1="53.1698" y1="-41.7306" x2="223.289" y2="-59.6541" gradientUnits="userSpaceOnUse">
<stop stop-color="#4E54C8"/>
<stop offset="1" stop-color="#4E54C8"/>
</linearGradient>
<linearGradient id="paint6_linear_317_8904" x1="58.286" y1="-37.8691" x2="224.168" y2="-55.3471" gradientUnits="userSpaceOnUse">
<stop stop-color="#4E54C8"/>
<stop offset="1" stop-color="#4E54C8"/>
</linearGradient>
<linearGradient id="paint7_linear_317_8904" x1="63.3502" y1="-34.0653" x2="225.079" y2="-51.1067" gradientUnits="userSpaceOnUse">
<stop stop-color="#4E54C8"/>
<stop offset="1" stop-color="#4E54C8"/>
</linearGradient>
<linearGradient id="paint8_linear_317_8904" x1="68.3674" y1="-30.3366" x2="226.055" y2="-46.9539" gradientUnits="userSpaceOnUse">
<stop stop-color="#4E54C8"/>
<stop offset="1" stop-color="#4E54C8"/>
</linearGradient>
<linearGradient id="paint9_linear_317_8904" x1="73.3353" y1="-26.6742" x2="227.082" y2="-42.8768" gradientUnits="userSpaceOnUse">
<stop stop-color="#4E54C8"/>
<stop offset="1" stop-color="#4E54C8"/>
</linearGradient>
<linearGradient id="paint10_linear_317_8904" x1="78.2444" y1="-23.0767" x2="228.163" y2="-38.8766" gradientUnits="userSpaceOnUse">
<stop stop-color="#4E54C8"/>
<stop offset="1" stop-color="#4E54C8"/>
</linearGradient>
<linearGradient id="paint11_linear_317_8904" x1="83.0905" y1="-19.5544" x2="229.29" y2="-34.9635" gradientUnits="userSpaceOnUse">
<stop stop-color="#4E54C8"/>
<stop offset="1" stop-color="#4E54C8"/>
</linearGradient>
<linearGradient id="paint12_linear_317_8904" x1="87.8797" y1="-16.1218" x2="230.486" y2="-31.1533" gradientUnits="userSpaceOnUse">
<stop stop-color="#4E54C8"/>
<stop offset="1" stop-color="#4E54C8"/>
</linearGradient>
<linearGradient id="paint13_linear_317_8904" x1="92.6035" y1="-12.772" x2="231.758" y2="-27.4411" gradientUnits="userSpaceOnUse">
<stop stop-color="#4E54C8"/>
<stop offset="1" stop-color="#4E54C8"/>
</linearGradient>
<linearGradient id="paint14_linear_317_8904" x1="97.256" y1="-9.50558" x2="233.09" y2="-23.8258" gradientUnits="userSpaceOnUse">
<stop stop-color="#4E54C8"/>
<stop offset="1" stop-color="#4E54C8"/>
</linearGradient>
<linearGradient id="paint15_linear_317_8904" x1="101.83" y1="-6.34375" x2="234.499" y2="-20.331" gradientUnits="userSpaceOnUse">
<stop stop-color="#4E54C8"/>
<stop offset="1" stop-color="#4E54C8"/>
</linearGradient>
<linearGradient id="paint16_linear_317_8904" x1="106.332" y1="-3.27682" x2="235.985" y2="-16.9473" gradientUnits="userSpaceOnUse">
<stop stop-color="#4E54C8"/>
<stop offset="1" stop-color="#4E54C8"/>
</linearGradient>
<linearGradient id="paint17_linear_317_8904" x1="110.755" y1="-0.313693" x2="237.553" y2="-13.6843" gradientUnits="userSpaceOnUse">
<stop stop-color="#4E54C8"/>
<stop offset="1" stop-color="#4E54C8"/>
</linearGradient>
<linearGradient id="paint18_linear_317_8904" x1="115.093" y1="2.54813" x2="239.192" y2="-10.5395" gradientUnits="userSpaceOnUse">
<stop stop-color="#4E54C8"/>
<stop offset="1" stop-color="#4E54C8"/>
</linearGradient>
<linearGradient id="paint19_linear_317_8904" x1="119.348" y1="5.29529" x2="240.926" y2="-7.52763" gradientUnits="userSpaceOnUse">
<stop stop-color="#4E54C8"/>
<stop offset="1" stop-color="#4E54C8"/>
</linearGradient>
<linearGradient id="paint20_linear_317_8904" x1="123.438" y1="7.38409" x2="242.674" y2="-5.19338" gradientUnits="userSpaceOnUse">
<stop stop-color="#4E54C8"/>
<stop offset="1" stop-color="#4E54C8"/>
</linearGradient>
<linearGradient id="paint21_linear_317_8904" x1="127.585" y1="10.4445" x2="244.654" y2="-1.90498" gradientUnits="userSpaceOnUse">
<stop stop-color="#4E54C8"/>
<stop offset="1" stop-color="#4E54C8"/>
</linearGradient>
<linearGradient id="paint22_linear_317_8904" x1="130.742" y1="11.5578" x2="247.482" y2="-0.721765" gradientUnits="userSpaceOnUse">
<stop stop-color="#4E54C8"/>
<stop offset="1" stop-color="#4E54C8"/>
</linearGradient>
<linearGradient id="paint23_linear_317_8904" x1="132.648" y1="11.2514" x2="251.567" y2="-1.25855" gradientUnits="userSpaceOnUse">
<stop stop-color="#4E54C8"/>
<stop offset="1" stop-color="#4E54C8"/>
</linearGradient>
<linearGradient id="paint24_linear_317_8904" x1="134.459" y1="10.8383" x2="255.739" y2="-1.92113" gradientUnits="userSpaceOnUse">
<stop stop-color="#4E54C8"/>
<stop offset="1" stop-color="#4E54C8"/>
</linearGradient>
<linearGradient id="paint25_linear_317_8904" x1="136.18" y1="10.306" x2="259.998" y2="-2.72163" gradientUnits="userSpaceOnUse">
<stop stop-color="#4E54C8"/>
<stop offset="1" stop-color="#4E54C8"/>
</linearGradient>
<linearGradient id="paint26_linear_317_8904" x1="137.803" y1="9.67169" x2="264.339" y2="-3.6431" gradientUnits="userSpaceOnUse">
<stop stop-color="#4E54C8"/>
<stop offset="1" stop-color="#4E54C8"/>
</linearGradient>
<linearGradient id="paint27_linear_317_8904" x1="139.358" y1="8.91724" x2="268.763" y2="-4.70047" gradientUnits="userSpaceOnUse">
<stop stop-color="#4E54C8"/>
<stop offset="1" stop-color="#4E54C8"/>
</linearGradient>
<linearGradient id="paint28_linear_317_8904" x1="140.844" y1="8.07101" x2="273.28" y2="-5.86692" gradientUnits="userSpaceOnUse">
<stop stop-color="#4E54C8"/>
<stop offset="1" stop-color="#4E54C8"/>
</linearGradient>
<linearGradient id="paint29_linear_317_8904" x1="142.234" y1="7.12187" x2="277.856" y2="-7.15273" gradientUnits="userSpaceOnUse">
<stop stop-color="#4E54C8"/>
<stop offset="1" stop-color="#4E54C8"/>
</linearGradient>
<linearGradient id="paint30_linear_317_8904" x1="143.557" y1="6.07413" x2="282.511" y2="-8.55216" gradientUnits="userSpaceOnUse">
<stop stop-color="#4E54C8"/>
<stop offset="1" stop-color="#4E54C8"/>
</linearGradient>
<linearGradient id="paint31_linear_317_8904" x1="144.809" y1="4.9418" x2="287.235" y2="-10.0513" gradientUnits="userSpaceOnUse">
<stop stop-color="#4E54C8"/>
<stop offset="1" stop-color="#4E54C8"/>
</linearGradient>
<linearGradient id="paint32_linear_317_8904" x1="145.995" y1="3.7228" x2="292.03" y2="-11.6513" gradientUnits="userSpaceOnUse">
<stop stop-color="#4E54C8"/>
<stop offset="1" stop-color="#4E54C8"/>
</linearGradient>
<linearGradient id="paint33_linear_317_8904" x1="147.124" y1="2.41651" x2="296.889" y2="-13.3515" gradientUnits="userSpaceOnUse">
<stop stop-color="#4E54C8"/>
<stop offset="1" stop-color="#4E54C8"/>
</linearGradient>
<linearGradient id="paint34_linear_317_8904" x1="148.183" y1="1.03546" x2="301.798" y2="-15.1392" gradientUnits="userSpaceOnUse">
<stop stop-color="#4E54C8"/>
<stop offset="1" stop-color="#4E54C8"/>
</linearGradient>
<linearGradient id="paint35_linear_317_8904" x1="149.195" y1="-0.414438" x2="306.768" y2="-17.0069" gradientUnits="userSpaceOnUse">
<stop stop-color="#4E54C8"/>
<stop offset="1" stop-color="#4E54C8"/>
</linearGradient>
<linearGradient id="paint36_linear_317_8904" x1="150.153" y1="-1.93441" x2="311.784" y2="-18.955" gradientUnits="userSpaceOnUse">
<stop stop-color="#4E54C8"/>
<stop offset="1" stop-color="#4E54C8"/>
</linearGradient>
<linearGradient id="paint37_linear_317_8904" x1="151.053" y1="-3.51262" x2="316.854" y2="-20.9734" gradientUnits="userSpaceOnUse">
<stop stop-color="#4E54C8"/>
<stop offset="1" stop-color="#4E54C8"/>
</linearGradient>
<linearGradient id="paint38_linear_317_8904" x1="151.923" y1="-5.15188" x2="321.974" y2="-23.0612" gradientUnits="userSpaceOnUse">
<stop stop-color="#4E54C8"/>
<stop offset="1" stop-color="#4E54C8"/>
</linearGradient>
<linearGradient id="paint39_linear_317_8904" x1="152.749" y1="-6.84879" x2="327.131" y2="-25.2148" gradientUnits="userSpaceOnUse">
<stop stop-color="#4E54C8"/>
<stop offset="1" stop-color="#4E54C8"/>
</linearGradient>
<linearGradient id="paint40_linear_317_8904" x1="153.523" y1="-8.5942" x2="332.322" y2="-27.4267" gradientUnits="userSpaceOnUse">
<stop stop-color="#4E54C8"/>
<stop offset="1" stop-color="#4E54C8"/>
</linearGradient>
<linearGradient id="paint41_linear_317_8904" x1="154.263" y1="-10.3874" x2="337.555" y2="-29.6943" gradientUnits="userSpaceOnUse">
<stop stop-color="#4E54C8"/>
<stop offset="1" stop-color="#4E54C8"/>
</linearGradient>
<linearGradient id="paint42_linear_317_8904" x1="154.982" y1="-12.2219" x2="342.826" y2="-32.0086" gradientUnits="userSpaceOnUse">
<stop stop-color="#4E54C8"/>
<stop offset="1" stop-color="#4E54C8"/>
</linearGradient>
<clipPath id="clip0_317_8904">
<rect width="306" height="148" fill="white"/>
</clipPath>
</defs>
</svg>
