<svg width="22" height="21" viewBox="0 0 22 21" fill="none" xmlns="http://www.w3.org/2000/svg">
    <g clip-path="url(#clip0_29_7408)">
        <path
            d="M11 0C5.21012 0 0.5 4.71012 0.5 10.5C0.5 16.2899 5.21012 21 11 21C16.7899 21 21.5 16.2899 21.5 10.5C21.5 4.71012 16.7899 0 11 0ZM11 19.25C6.17525 19.25 2.25 15.3247 2.25 10.5C2.25 5.67525 6.17525 1.75 11 1.75C15.8247 1.75 19.75 5.67525 19.75 10.5C19.75 15.3247 15.8247 19.25 11 19.25ZM9.25 8.75C9.25 9.08075 9.48713 9.36075 9.8135 9.415L12.4744 9.85863C13.6486 10.0538 14.5 11.06 14.5 12.25C14.5 13.6973 13.3223 14.875 11.875 14.875V16.625H10.125V14.875C8.67775 14.875 7.5 13.6973 7.5 12.25H9.25C9.25 12.733 9.642 13.125 10.125 13.125H11.875C12.358 13.125 12.75 12.733 12.75 12.25C12.75 11.9193 12.5129 11.6392 12.1865 11.585L9.52562 11.1414C8.35137 10.9462 7.5 9.94 7.5 8.75C7.5 7.30275 8.67775 6.125 10.125 6.125V4.375H11.875V6.125C13.3223 6.125 14.5 7.30275 14.5 8.75H12.75C12.75 8.26788 12.358 7.875 11.875 7.875H10.125C9.642 7.875 9.25 8.26788 9.25 8.75Z"
            fill="#1575FF" />
    </g>
    <defs>
        <clipPath id="clip0_29_7408">
            <rect width="21" height="21" fill="white" transform="translate(0.5)" />
        </clipPath>
    </defs>
</svg>
