<svg width="22" height="21" viewBox="0 0 22 21" fill="none" xmlns="http://www.w3.org/2000/svg">
    <g clip-path="url(#clip0_29_7426)">
        <path
            d="M16.9614 8.75C17.2317 8.75 17.4873 8.62488 17.6526 8.41138C17.818 8.19788 17.8757 7.91963 17.8092 7.658C17.5371 6.59313 16.9824 5.62013 16.2054 4.84313L13.156 1.79375C11.9992 0.637 10.461 0 8.82475 0H4.87413C2.46263 0 0.5 1.96263 0.5 4.375V16.625C0.5 19.0374 2.46263 21 4.875 21H7.5C7.983 21 8.375 20.608 8.375 20.125C8.375 19.642 7.983 19.25 7.5 19.25H4.875C3.42775 19.25 2.25 18.0723 2.25 16.625V4.375C2.25 2.92775 3.42775 1.75 4.875 1.75H8.82563C8.96825 1.75 9.11 1.757 9.25 1.77013V6.125C9.25 7.57225 10.4277 8.75 11.875 8.75H16.9614ZM11 6.125V2.32663C11.3316 2.51738 11.6405 2.75363 11.9188 3.03188L14.9681 6.08125C15.2429 6.356 15.4782 6.66575 15.6707 7H11.875C11.3929 7 11 6.60713 11 6.125ZM20.7317 10.3941C19.7395 9.40188 18.0105 9.40188 17.0191 10.3941L11.1505 16.2628C10.4899 16.9234 10.125 17.8028 10.125 18.7381V20.1259C10.125 20.6089 10.517 21.0009 11 21.0009H12.3878C13.3231 21.0009 14.2016 20.636 14.8622 19.9754L20.7309 14.1068C21.227 13.6106 21.5 12.9518 21.5 12.25C21.5 11.5483 21.227 10.8894 20.7317 10.3941ZM19.4936 12.8686L13.6241 18.7373C13.2942 19.068 12.855 19.25 12.3869 19.25H11.8741V18.7373C11.8741 18.27 12.0561 17.8308 12.3869 17.5L18.2564 11.6314C18.5862 11.3006 19.1629 11.3006 19.4936 11.6314C19.659 11.7959 19.75 12.0155 19.75 12.25C19.75 12.4845 19.659 12.7033 19.4936 12.8686Z"
            fill="#1575FF" />
    </g>
    <defs>
        <clipPath id="clip0_29_7426">
            <rect width="21" height="21" fill="white" transform="translate(0.5)" />
        </clipPath>
    </defs>
</svg>
