<svg width="22" height="21" viewBox="0 0 22 21" fill="none" xmlns="http://www.w3.org/2000/svg">
    <g clip-path="url(#clip0_29_7434)">
        <path
            d="M15.375 0H6.625C4.21 0 2.25 1.96 2.25 4.375V17.5C2.25 19.4338 3.81625 21 5.75 21H15.375C17.79 21 19.75 19.04 19.75 16.625V4.375C19.75 1.96 17.79 0 15.375 0ZM18 4.375V14H7.5V1.75H15.375C16.8187 1.75 18 2.93125 18 4.375ZM5.75 1.9075V14C5.11125 14 4.51625 14.1837 4 14.49V4.375C4 3.2375 4.735 2.275 5.75 1.9075ZM15.375 19.25H5.75C4.7875 19.25 4 18.4625 4 17.5C4 16.5375 4.7875 15.75 5.75 15.75H18V16.625C18 18.0687 16.8187 19.25 15.375 19.25ZM9.94125 12.25C10.3087 12.25 10.6412 12.0138 10.7637 11.6725L11.1838 10.5H14.325L14.745 11.6725C14.8675 12.0225 15.2 12.25 15.5675 12.25C16.1712 12.25 16.5912 11.655 16.39 11.0775L13.9925 4.34875C13.8 3.82375 13.3188 3.4825 12.7588 3.4825C12.1988 3.4825 11.7175 3.82375 11.525 4.3575L9.1275 11.0863C8.92625 11.655 9.34625 12.2588 9.95 12.2588L9.94125 12.25ZM13.7038 8.75H11.8138L12.7588 6.09875L13.7038 8.75Z"
            fill="#1575FF" />
    </g>
    <defs>
        <clipPath id="clip0_29_7434">
            <rect width="21" height="21" fill="white" transform="translate(0.5)" />
        </clipPath>
    </defs>
</svg>
