<svg width="21" height="21" viewBox="0 0 21 21" fill="none" xmlns="http://www.w3.org/2000/svg">
<path d="M11.375 18.375V19.25C11.375 19.7332 10.9832 20.125 10.5 20.125C10.0168 20.125 9.625 19.7332 9.625 19.25V18.375H2.625C2.14175 18.375 1.75 17.9833 1.75 17.5V3.5C1.75 3.01675 2.14175 2.625 2.625 2.625H7.875C8.92036 2.625 9.85871 3.08328 10.5 3.80991C11.1413 3.08328 12.0796 2.625 13.125 2.625H18.375C18.8583 2.625 19.25 3.01675 19.25 3.5V17.5C19.25 17.9833 18.8583 18.375 18.375 18.375H11.375ZM16.5 16.625C17.0523 16.625 17.5 16.1773 17.5 15.625V5.375C17.5 4.82272 17.0523 4.375 16.5 4.375H13.125C12.1585 4.375 11.375 5.1585 11.375 6.125V16.625H16.5ZM9.625 16.625V6.125C9.625 5.1585 8.84153 4.375 7.875 4.375H4.5C3.94772 4.375 3.5 4.82272 3.5 5.375V15.625C3.5 16.1773 3.94772 16.625 4.5 16.625H9.625Z" fill="#1575FF"/>
</svg>
