<svg width="21" height="21" viewBox="0 0 21 21" fill="none" xmlns="http://www.w3.org/2000/svg">
    <g clip-path="url(#clip0_29_7420)">
        <path
            d="M14 14.875C14.2321 14.875 14.4546 14.9672 14.6187 15.1313C14.7828 15.2954 14.875 15.5179 14.875 15.75C14.875 15.9821 14.7828 16.2046 14.6187 16.3687C14.4546 16.5328 14.2321 16.625 14 16.625H13.125C12.8929 16.625 12.6704 16.5328 12.5063 16.3687C12.3422 16.2046 12.25 15.9821 12.25 15.75C12.25 15.5179 12.3422 15.2954 12.5063 15.1313C12.6704 14.9672 12.8929 14.875 13.125 14.875H14ZM12.25 13.125C12.0179 13.125 11.7954 13.0328 11.6313 12.8687C11.4672 12.7046 11.375 12.4821 11.375 12.25V11.375H9.625V12.25C9.625 12.4821 9.53281 12.7046 9.36872 12.8687C9.20462 13.0328 8.98206 13.125 8.75 13.125C8.51794 13.125 8.29538 13.0328 8.13128 12.8687C7.96719 12.7046 7.875 12.4821 7.875 12.25V8.75C7.875 8.05381 8.15156 7.38613 8.64384 6.89384C9.13613 6.40156 9.80381 6.125 10.5 6.125C11.1962 6.125 11.8639 6.40156 12.3562 6.89384C12.8484 7.38613 13.125 8.05381 13.125 8.75V12.25C13.125 12.4821 13.0328 12.7046 12.8687 12.8687C12.7046 13.0328 12.4821 13.125 12.25 13.125ZM11.375 9.625V8.75C11.375 8.51793 11.2828 8.29537 11.1187 8.13128C10.9546 7.96719 10.7321 7.875 10.5 7.875C10.2679 7.875 10.0454 7.96719 9.88128 8.13128C9.71719 8.29537 9.625 8.51793 9.625 8.75V9.625H11.375ZM9.87787 14.2625L8.46738 15.6888C8.42787 15.7285 8.37462 15.7515 8.31862 15.7532C8.26262 15.7548 8.20812 15.7349 8.16638 15.6975L7.62738 15.1375C7.46493 14.9711 7.24304 14.8761 7.01052 14.8733C6.778 14.8705 6.55389 14.9602 6.3875 15.1226C6.22111 15.2851 6.12607 15.507 6.12328 15.7395C6.12049 15.972 6.21018 16.1961 6.37262 16.3625L6.92037 16.926C7.2903 17.2952 7.7916 17.5026 8.31425 17.5026C8.8369 17.5026 9.3382 17.2952 9.70813 16.926L11.1221 15.4875C11.2669 15.3193 11.3423 15.1024 11.3332 14.8806C11.324 14.6589 11.2309 14.4489 11.0728 14.2932C10.9146 14.1375 10.7032 14.0477 10.4814 14.042C10.2595 14.0363 10.0438 14.1151 9.87787 14.2625ZM18.375 5.82487V16.625C18.3736 17.7849 17.9122 18.8969 17.0921 19.7171C16.2719 20.5372 15.1599 20.9986 14 21H7C5.8401 20.9986 4.72811 20.5372 3.90794 19.7171C3.08777 18.8969 2.62639 17.7849 2.625 16.625V4.375C2.62639 3.2151 3.08777 2.10311 3.90794 1.28294C4.72811 0.462771 5.8401 0.0013885 7 -8.71008e-07H12.5501C13.125 -0.00147968 13.6944 0.111052 14.2255 0.331084C14.7566 0.551116 15.2388 0.874278 15.6441 1.28187L17.0931 2.73087C17.5007 3.13624 17.8239 3.61842 18.0439 4.1495C18.2639 4.68058 18.3765 5.25002 18.375 5.82487ZM14.4069 2.51912C14.2825 2.39545 14.1462 2.28437 14 2.1875V4.375H16.1875C16.0904 4.22874 15.979 4.09245 15.855 3.96812L14.4069 2.51912ZM16.625 6.125H14C13.5359 6.125 13.0908 5.94062 12.7626 5.61244C12.4344 5.28425 12.25 4.83913 12.25 4.375V1.75H7C6.30381 1.75 5.63613 2.02656 5.14384 2.51884C4.65156 3.01113 4.375 3.67881 4.375 4.375V16.625C4.375 17.3212 4.65156 17.9889 5.14384 18.4812C5.63613 18.9734 6.30381 19.25 7 19.25H14C14.6962 19.25 15.3639 18.9734 15.8562 18.4812C16.3484 17.9889 16.625 17.3212 16.625 16.625V6.125Z"
            fill="#1575FF" />
    </g>
    <defs>
        <clipPath id="clip0_29_7420">
            <rect width="21" height="21" fill="white" />
        </clipPath>
    </defs>
</svg>
