<svg width="21" height="21" viewBox="0 0 21 21" fill="none" xmlns="http://www.w3.org/2000/svg">
    <g clip-path="url(#clip0_29_7414)">
        <path
            d="M10.234 10.2533L8.60475 11.8326C8.3265 12.1109 7.95725 12.2509 7.58712 12.2509C7.2135 12.2509 6.83812 12.1083 6.552 11.823L5.95613 11.2507C5.60788 10.9156 5.5965 10.3618 5.93162 10.0135C6.26675 9.66525 6.8215 9.65475 7.16887 9.989L7.58275 10.3871L9.016 8.99762C9.3625 8.6625 9.91638 8.6695 10.2533 9.01688C10.5893 9.36338 10.5814 9.91638 10.234 10.2533ZM14 14.875H11.375C10.892 14.875 10.5 15.267 10.5 15.75C10.5 16.233 10.892 16.625 11.375 16.625H14C14.483 16.625 14.875 16.233 14.875 15.75C14.875 15.267 14.483 14.875 14 14.875ZM14 4.375H11.375C10.892 4.375 10.5 4.767 10.5 5.25C10.5 5.733 10.892 6.125 11.375 6.125H14C14.483 6.125 14.875 5.733 14.875 5.25C14.875 4.767 14.483 4.375 14 4.375ZM14 9.625H12.25C11.767 9.625 11.375 10.017 11.375 10.5C11.375 10.983 11.767 11.375 12.25 11.375H14C14.483 11.375 14.875 10.983 14.875 10.5C14.875 10.017 14.483 9.625 14 9.625ZM7.4375 14.4375C6.713 14.4375 6.125 15.0255 6.125 15.75C6.125 16.4745 6.713 17.0625 7.4375 17.0625C8.162 17.0625 8.75 16.4745 8.75 15.75C8.75 15.0255 8.162 14.4375 7.4375 14.4375ZM7.4375 6.5625C8.162 6.5625 8.75 5.9745 8.75 5.25C8.75 4.5255 8.162 3.9375 7.4375 3.9375C6.713 3.9375 6.125 4.5255 6.125 5.25C6.125 5.9745 6.713 6.5625 7.4375 6.5625ZM19.25 4.375V16.625C19.25 19.0374 17.2874 21 14.875 21H6.125C3.71263 21 1.75 19.0374 1.75 16.625V4.375C1.75 1.96263 3.71263 0 6.125 0H14.875C17.2874 0 19.25 1.96263 19.25 4.375ZM17.5 4.375C17.5 2.92775 16.3223 1.75 14.875 1.75H6.125C4.67775 1.75 3.5 2.92775 3.5 4.375V16.625C3.5 18.0723 4.67775 19.25 6.125 19.25H14.875C16.3223 19.25 17.5 18.0723 17.5 16.625V4.375Z"
            fill="#1575FF" />
    </g>
    <defs>
        <clipPath id="clip0_29_7414">
            <rect width="21" height="21" fill="white" />
        </clipPath>
    </defs>
</svg>
