<svg width="22" height="21" viewBox="0 0 22 21" fill="none" xmlns="http://www.w3.org/2000/svg">
    <g clip-path="url(#clip0_29_7440)">
        <path
            d="M15.375 8.78412C11.9984 8.78412 9.25 11.5316 9.25 14.9091C9.25 18.2674 11.9984 21 15.375 21C18.7516 21 21.5 18.2525 21.5 14.875C21.5 11.5167 18.7516 8.78412 15.375 8.78412ZM15.375 19.25C12.9626 19.25 11 17.3022 11 14.9091C11 12.4967 12.9626 10.5341 15.375 10.5341C17.7874 10.5341 19.75 12.4819 19.75 14.875C19.75 17.2874 17.7874 19.25 15.375 19.25ZM16.8686 15.1314C17.2108 15.4735 17.2108 16.0265 16.8686 16.3686C16.698 16.5393 16.474 16.625 16.25 16.625C16.026 16.625 15.802 16.5393 15.6314 16.3686L14.7564 15.4936C14.5919 15.3291 14.5 15.1069 14.5 14.875V13.125C14.5 12.642 14.8911 12.25 15.375 12.25C15.8589 12.25 16.25 12.642 16.25 13.125V14.5128L16.8686 15.1314ZM21.5 6.125V7.875C21.5 8.358 21.1089 8.75 20.625 8.75C20.1411 8.75 19.75 8.358 19.75 7.875V6.125C19.75 4.67775 18.5723 3.5 17.125 3.5H4.875C3.42775 3.5 2.25 4.67775 2.25 6.125V7H10.125C10.608 7 11 7.392 11 7.875C11 8.358 10.608 8.75 10.125 8.75H2.25V16.625C2.25 18.0723 3.42775 19.25 4.875 19.25H8.375C8.858 19.25 9.25 19.642 9.25 20.125C9.25 20.608 8.858 21 8.375 21H4.875C2.46263 21 0.5 19.0374 0.5 16.625V6.125C0.5 3.71263 2.46263 1.75 4.875 1.75H5.75V0.875C5.75 0.392 6.142 0 6.625 0C7.108 0 7.5 0.392 7.5 0.875V1.75H14.5V0.875C14.5 0.392 14.8911 0 15.375 0C15.8589 0 16.25 0.392 16.25 0.875V1.75H17.125C19.5374 1.75 21.5 3.71263 21.5 6.125Z"
            fill="#1575FF" />
    </g>
    <defs>
        <clipPath id="clip0_29_7440">
            <rect width="21" height="21" fill="white" transform="translate(0.5)" />
        </clipPath>
    </defs>
</svg>
