<svg width="21" height="20" viewBox="0 0 21 20" fill="none" xmlns="http://www.w3.org/2000/svg">
<path d="M16.3333 9.16675H4.66667C3.74619 9.16675 3 9.91294 3 10.8334V16.6667C3 17.5872 3.74619 18.3334 4.66667 18.3334H16.3333C17.2538 18.3334 18 17.5872 18 16.6667V10.8334C18 9.91294 17.2538 9.16675 16.3333 9.16675Z" stroke="#1575FF" stroke-width="1.5" stroke-linecap="round" stroke-linejoin="round"/>
<path d="M6.33301 9.1665V5.83317C6.33301 4.7281 6.77199 3.66829 7.5534 2.88689C8.3348 2.10549 9.39461 1.6665 10.4997 1.6665C11.6047 1.6665 12.6646 2.10549 13.446 2.88689C14.2274 3.66829 14.6663 4.7281 14.6663 5.83317V9.1665" stroke="#1575FF" stroke-width="1.5" stroke-linecap="round" stroke-linejoin="round"/>
</svg>
