<svg width="29" height="29" viewBox="0 0 29 29" fill="none" xmlns="http://www.w3.org/2000/svg">
<path d="M0.75 25.5H28.25V28.25H0.75V25.5ZM3.5 14.5H6.25V24.125H3.5V14.5ZM10.375 14.5H13.125V24.125H10.375V14.5ZM15.875 14.5H18.625V24.125H15.875V14.5ZM22.75 14.5H25.5V24.125H22.75V14.5ZM0.75 7.625L14.5 0.75L28.25 7.625V13.125H0.75V7.625ZM14.5 9C15.2594 9 15.875 8.38439 15.875 7.625C15.875 6.86561 15.2594 6.25 14.5 6.25C13.7406 6.25 13.125 6.86561 13.125 7.625C13.125 8.38439 13.7406 9 14.5 9Z" fill="#334155"/>
</svg>
