<svg width="197" height="196" viewBox="0 0 197 196" fill="none" xmlns="http://www.w3.org/2000/svg">
<circle opacity="0.05" cx="98.5" cy="98" r="98" fill="white"/>
<circle opacity="0.1" cx="98.4999" cy="97.9999" r="84.3544" fill="white"/>
<circle opacity="0.15" cx="98.5001" cy="97.9999" r="71.9494" fill="white"/>
<circle opacity="0.3" cx="98.4993" cy="97.9998" r="58.0237" fill="white"/>
<circle cx="98.4989" cy="97.9992" r="42.5507" fill="#0DB166"/>
<path fill-rule="evenodd" clip-rule="evenodd" d="M98.4989 140.55C121.999 140.55 141.05 121.499 141.05 97.9992C141.05 74.4991 121.999 55.4485 98.4989 55.4485C74.9988 55.4485 55.9482 74.4991 55.9482 97.9992C55.9482 121.499 74.9988 140.55 98.4989 140.55ZM118.216 91.1225C120.294 89.0454 120.294 85.6777 118.216 83.6005C116.139 81.5234 112.772 81.5234 110.694 83.6005L93.1801 101.115L86.3034 94.2382C84.2263 92.1611 80.8586 92.1611 78.7814 94.2382C76.7043 96.3153 76.7043 99.683 78.7814 101.76L89.4191 112.398C91.4963 114.475 94.864 114.475 96.9411 112.398L118.216 91.1225Z" fill="white"/>
</svg>
