<svg width="40" height="40" viewBox="0 0 40 40" fill="none" xmlns="http://www.w3.org/2000/svg">
    <g filter="url(#filter0_dd_29_7626)">
        <rect x="3" y="2" width="34" height="34" rx="5.66667" fill="#1575FF" />
        <rect x="3" y="2" width="34" height="34" rx="5.66667" fill="white" fill-opacity="0.15" />
        <g clip-path="url(#clip0_29_7626)">
            <path
                d="M28.0389 20.2562L26.6033 15.0913C26.1825 13.5781 25.2681 12.2491 24.0052 11.3153C22.7424 10.3816 21.2037 9.8968 19.6337 9.93797C18.0637 9.97913 16.5525 10.5439 15.3403 11.5425C14.1281 12.5411 13.2845 13.9163 12.9436 15.4494L11.8322 20.4474C11.7094 20.9997 11.7123 21.5724 11.8405 22.1235C11.9687 22.6745 12.2191 23.1897 12.5731 23.631C12.9271 24.0723 13.3757 24.4284 13.8857 24.6732C14.3958 24.9179 14.9543 25.045 15.5201 25.0449H16.3618C16.5352 25.8989 16.9985 26.6667 17.6732 27.2182C18.3479 27.7697 19.1926 28.071 20.064 28.071C20.9354 28.071 21.78 27.7697 22.4548 27.2182C23.1295 26.6667 23.5928 25.8989 23.7662 25.0449H24.3994C24.9818 25.045 25.5563 24.9104 26.078 24.6516C26.5998 24.3929 27.0546 24.017 27.4071 23.5534C27.7595 23.0897 28 22.5509 28.1097 21.9789C28.2195 21.407 28.1947 20.8174 28.0389 20.2562ZM20.064 26.5561C19.5969 26.5541 19.1417 26.4079 18.7609 26.1374C18.38 25.8669 18.092 25.4854 17.9363 25.0449H22.1916C22.0359 25.4854 21.7479 25.8669 21.3671 26.1374C20.9862 26.4079 20.5311 26.5541 20.064 26.5561ZM26.2036 22.6385C25.9931 22.9178 25.7203 23.1442 25.407 23.2996C25.0936 23.455 24.7484 23.5352 24.3986 23.5338H15.5201C15.1807 23.5338 14.8456 23.4575 14.5396 23.3106C14.2336 23.1638 13.9645 22.95 13.7522 22.6853C13.5399 22.4205 13.3897 22.1114 13.3128 21.7808C13.2358 21.4503 13.2342 21.1066 13.3078 20.7753L14.4185 15.7765C14.6862 14.5723 15.3488 13.4922 16.3009 12.7078C17.253 11.9234 18.44 11.4798 19.6732 11.4475C20.9064 11.4152 22.115 11.7961 23.1068 12.5295C24.0987 13.263 24.8169 14.307 25.1474 15.4955L26.5829 20.6605C26.6778 20.997 26.6929 21.3509 26.627 21.6943C26.5612 22.0377 26.4162 22.361 26.2036 22.6385Z"
                fill="white" />
        </g>
    </g>
    <defs>
        <filter id="filter0_dd_29_7626" x="0" y="0" width="40" height="40"
            filterUnits="userSpaceOnUse" color-interpolation-filters="sRGB">
            <feFlood flood-opacity="0" result="BackgroundImageFix" />
            <feColorMatrix in="SourceAlpha" type="matrix"
                values="0 0 0 0 0 0 0 0 0 0 0 0 0 0 0 0 0 0 127 0" result="hardAlpha" />
            <feOffset dy="1" />
            <feGaussianBlur stdDeviation="1" />
            <feColorMatrix type="matrix" values="0 0 0 0 0 0 0 0 0 0 0 0 0 0 0 0 0 0 0.06 0" />
            <feBlend mode="normal" in2="BackgroundImageFix" result="effect1_dropShadow_29_7626" />
            <feColorMatrix in="SourceAlpha" type="matrix"
                values="0 0 0 0 0 0 0 0 0 0 0 0 0 0 0 0 0 0 127 0" result="hardAlpha" />
            <feOffset dy="1" />
            <feGaussianBlur stdDeviation="1.5" />
            <feColorMatrix type="matrix" values="0 0 0 0 0 0 0 0 0 0 0 0 0 0 0 0 0 0 0.1 0" />
            <feBlend mode="normal" in2="effect1_dropShadow_29_7626"
                result="effect2_dropShadow_29_7626" />
            <feBlend mode="normal" in="SourceGraphic" in2="effect2_dropShadow_29_7626"
                result="shape" />
        </filter>
        <clipPath id="clip0_29_7626">
            <rect width="18.1333" height="18.1333" fill="white" transform="translate(11 9.93359)" />
        </clipPath>
    </defs>
</svg>
