<svg width="40" height="40" viewBox="0 0 40 40" fill="none" xmlns="http://www.w3.org/2000/svg">
    <g filter="url(#filter0_dd_29_7637)">
        <rect x="3" y="2" width="34" height="34" rx="5.66667" fill="#1575FF" />
        <rect x="3" y="2" width="34" height="34" rx="5.66667" fill="white" fill-opacity="0.15" />
        <path
            d="M28.75 17.75H11.25C10.5596 17.75 10 18.3096 10 19C10 19.6904 10.5596 20.25 11.25 20.25H28.75C29.4404 20.25 30 19.6904 30 19C30 18.3096 29.4404 17.75 28.75 17.75Z"
            fill="white" />
        <path
            d="M11.25 14.417H28.75C29.4404 14.417 30 13.8573 30 13.167C30 12.4766 29.4404 11.917 28.75 11.917H11.25C10.5596 11.917 10 12.4766 10 13.167C10 13.8573 10.5596 14.417 11.25 14.417Z"
            fill="white" />
        <path
            d="M28.75 23.584H11.25C10.5596 23.584 10 24.1436 10 24.834C10 25.5243 10.5596 26.084 11.25 26.084H28.75C29.4404 26.084 30 25.5243 30 24.834C30 24.1436 29.4404 23.584 28.75 23.584Z"
            fill="white" />
    </g>
    <defs>
        <filter id="filter0_dd_29_7637" x="0" y="0" width="40" height="40"
            filterUnits="userSpaceOnUse" color-interpolation-filters="sRGB">
            <feFlood flood-opacity="0" result="BackgroundImageFix" />
            <feColorMatrix in="SourceAlpha" type="matrix"
                values="0 0 0 0 0 0 0 0 0 0 0 0 0 0 0 0 0 0 127 0" result="hardAlpha" />
            <feOffset dy="1" />
            <feGaussianBlur stdDeviation="1" />
            <feColorMatrix type="matrix" values="0 0 0 0 0 0 0 0 0 0 0 0 0 0 0 0 0 0 0.06 0" />
            <feBlend mode="normal" in2="BackgroundImageFix" result="effect1_dropShadow_29_7637" />
            <feColorMatrix in="SourceAlpha" type="matrix"
                values="0 0 0 0 0 0 0 0 0 0 0 0 0 0 0 0 0 0 127 0" result="hardAlpha" />
            <feOffset dy="1" />
            <feGaussianBlur stdDeviation="1.5" />
            <feColorMatrix type="matrix" values="0 0 0 0 0 0 0 0 0 0 0 0 0 0 0 0 0 0 0.1 0" />
            <feBlend mode="normal" in2="effect1_dropShadow_29_7637"
                result="effect2_dropShadow_29_7637" />
            <feBlend mode="normal" in="SourceGraphic" in2="effect2_dropShadow_29_7637"
                result="shape" />
        </filter>
    </defs>
</svg>
