<svg width="21" height="21" viewBox="0 0 21 21" fill="none" xmlns="http://www.w3.org/2000/svg">
    <g clip-path="url(#clip0_89_545)">
        <path
            d="M6.125 12.25C8.05525 12.25 9.625 10.6803 9.625 8.75C9.625 6.81975 8.05525 5.25 6.125 5.25C4.19475 5.25 2.625 6.81975 2.625 8.75C2.625 10.6803 4.19475 12.25 6.125 12.25ZM6.125 7C7.09013 7 7.875 7.78488 7.875 8.75C7.875 9.71513 7.09013 10.5 6.125 10.5C5.15988 10.5 4.375 9.71513 4.375 8.75C4.375 7.78488 5.15988 7 6.125 7ZM12.25 20.125C12.25 20.6089 11.858 21 11.375 21C10.892 21 10.5 20.6089 10.5 20.125C10.5 17.7126 8.53738 15.75 6.125 15.75C3.71263 15.75 1.75 17.7126 1.75 20.125C1.75 20.6089 1.358 21 0.875 21C0.392 21 0 20.6089 0 20.125C0 16.7484 2.7475 14 6.125 14C9.5025 14 12.25 16.7484 12.25 20.125ZM21 4.375V11.375C21 13.7874 19.0374 15.75 16.625 15.75H13.125C12.642 15.75 12.25 15.3589 12.25 14.875V14C12.25 13.5161 12.642 13.125 13.125 13.125H15.75C16.233 13.125 16.625 13.5161 16.625 14C18.0723 14 19.25 12.8223 19.25 11.375V4.375C19.25 2.92775 18.0723 1.75 16.625 1.75H8.28188C7.34738 1.75 6.47588 2.25313 6.00775 3.06338C5.76538 3.48163 5.23075 3.626 4.8125 3.38188C4.39338 3.14038 4.25075 2.60488 4.49313 2.18663C5.27363 0.83825 6.72525 0 8.28275 0H16.6259C19.0383 0 21 1.96263 21 4.375Z"
            fill="#1575FF" />
        <path
            d="M11.9367 10.185C11.7832 10.185 11.6502 10.1335 11.5379 10.0304C11.4293 9.92376 11.375 9.79758 11.375 9.65186C11.375 9.47059 11.433 9.28399 11.5491 9.09205C11.6652 8.89657 11.8094 8.70819 11.9817 8.52692C12.1539 8.3421 12.3281 8.17327 12.5041 8.02043C12.6801 7.8676 12.828 7.74142 12.9478 7.6419C13.1838 7.44641 13.4384 7.26514 13.7118 7.09809C13.9852 6.92748 14.2436 6.74977 14.487 6.56494C14.7341 6.37657 14.9345 6.16331 15.088 5.92517C15.2453 5.68348 15.324 5.39736 15.324 5.06681C15.324 4.80734 15.2622 4.57453 15.1386 4.36839C15.015 4.16224 14.8484 3.99874 14.6386 3.87789C14.4289 3.75349 14.193 3.69129 13.9309 3.69129C13.6051 3.69129 13.3242 3.78903 13.0883 3.98452C12.8561 4.18001 12.7119 4.40215 12.6557 4.65095C12.6295 4.76469 12.5621 4.86421 12.4535 4.94951C12.3487 5.03482 12.2307 5.07747 12.0996 5.07747C11.9461 5.07747 11.8131 5.02593 11.7008 4.92286C11.5922 4.81978 11.5379 4.69716 11.5379 4.55499C11.5379 4.29197 11.6072 4.04494 11.7457 3.81391C11.8843 3.57933 12.0678 3.37318 12.2962 3.19547C12.5284 3.01775 12.7868 2.87913 13.0714 2.77961C13.356 2.67654 13.6463 2.625 13.9421 2.625C14.4289 2.625 14.8596 2.73341 15.2341 2.95022C15.6123 3.16348 15.9081 3.45315 16.1216 3.81925C16.3388 4.18534 16.4474 4.59408 16.4474 5.04548C16.4474 5.51465 16.3519 5.91806 16.1609 6.25572C15.9699 6.59338 15.7284 6.88839 15.4363 7.14074C15.1442 7.38954 14.8427 7.61524 14.5319 7.81784C14.2211 8.02043 13.944 8.22125 13.7006 8.42029C13.4309 8.64777 13.1931 8.88057 12.9872 9.11871H16.2733C16.4268 9.11871 16.5579 9.17202 16.6665 9.27865C16.7788 9.38173 16.835 9.50613 16.835 9.65186C16.835 9.79758 16.7788 9.92376 16.6665 10.0304C16.5579 10.1335 16.4268 10.185 16.2733 10.185H11.9367Z"
            fill="#1575FF" />
    </g>
    <defs>
        <clipPath id="clip0_89_545">
            <rect width="21" height="21" fill="white" />
        </clipPath>
    </defs>
</svg>
