<svg width="21" height="21" viewBox="0 0 21 21" fill="none" xmlns="http://www.w3.org/2000/svg">
    <g clip-path="url(#clip0_89_541)">
        <path
            d="M12.817 4.80638C13.5809 4.193 14.3675 3.36875 14.7665 2.366C14.9747 1.84275 14.9074 1.24862 14.5871 0.777C14.2572 0.2905 13.7104 0 13.125 0H7.875C7.28962 0 6.74275 0.2905 6.41287 0.777C6.09262 1.24862 6.02613 1.84275 6.2335 2.366C6.6325 3.36787 7.41913 4.193 8.183 4.80638C4.109 6.31838 0.875 11.5141 0.875 15.75C0.875 18.6454 3.22962 21 6.125 21H14.875C17.7704 21 20.125 18.6454 20.125 15.75C20.125 11.5141 16.891 6.31838 12.817 4.80638ZM13.1399 1.71938C12.6884 2.85425 11.3076 3.81325 10.4983 4.26562C9.69063 3.81675 8.31512 2.86562 7.87412 1.75L13.1399 1.71938ZM14.8741 19.25H6.125C4.19475 19.25 2.625 17.6803 2.625 15.75C2.625 11.1624 6.74625 6.125 10.5 6.125C14.2537 6.125 18.375 11.1624 18.375 15.75C18.375 17.6803 16.8044 19.25 14.8741 19.25ZM10.4991 19.25C10.0161 19.25 9.62412 18.858 9.62412 18.375V17.5H9.38962C8.45512 17.5 7.5845 16.9977 7.11638 16.1884C6.87488 15.7701 7.0175 15.2355 7.43575 14.9931C7.85225 14.7508 8.38863 14.8934 8.631 15.3125C8.78675 15.582 9.07812 15.75 9.38962 15.75H11.3741C11.8562 15.75 12.2491 15.3571 12.2491 14.875C12.2491 14.5443 12.012 14.2642 11.6856 14.21L9.02387 13.7664C7.8505 13.5712 6.99825 12.565 6.99825 11.375C6.99825 9.92775 8.176 8.75 9.62325 8.75V7.875C9.62325 7.392 10.0153 7 10.4983 7C10.9813 7 11.3733 7.392 11.3733 7.875V8.75H11.6077C12.5414 8.75 13.4129 9.25312 13.881 10.0625C14.1225 10.4807 13.9799 11.0154 13.5616 11.2578C13.1442 11.5001 12.6088 11.3575 12.3664 10.9384C12.2098 10.668 11.9192 10.5009 11.6077 10.5009H9.62325C9.14113 10.5009 8.74825 10.8938 8.74825 11.3759C8.74825 11.7066 8.98538 11.9866 9.31175 12.0409L11.9735 12.4845C13.1469 12.6796 13.9991 13.6859 13.9991 14.8759C13.9991 16.3231 12.8214 17.5009 11.3741 17.5009V18.3759C11.3741 18.8589 10.9821 19.25 10.4991 19.25Z"
            fill="#1575FF" />
    </g>
    <defs>
        <clipPath id="clip0_89_541">
            <rect width="21" height="21" fill="white" />
        </clipPath>
    </defs>
</svg>
