<svg width="21" height="21" viewBox="0 0 21 21" fill="none" xmlns="http://www.w3.org/2000/svg">
    <g clip-path="url(#clip0_89_536)">
        <path
            d="M17.5 0H3.5C2.57174 0 1.6815 0.368749 1.02513 1.02513C0.368749 1.6815 0 2.57174 0 3.5L0 14C0 14.9283 0.368749 15.8185 1.02513 16.4749C1.6815 17.1313 2.57174 17.5 3.5 17.5H6.0375L9.93212 20.7926C10.0901 20.9263 10.2904 20.9997 10.4974 20.9997C10.7044 20.9997 10.9046 20.9263 11.0626 20.7926L14.9625 17.5H17.5C18.4283 17.5 19.3185 17.1313 19.9749 16.4749C20.6313 15.8185 21 14.9283 21 14V3.5C21 2.57174 20.6313 1.6815 19.9749 1.02513C19.3185 0.368749 18.4283 0 17.5 0ZM19.25 14C19.25 14.4641 19.0656 14.9092 18.7374 15.2374C18.4092 15.5656 17.9641 15.75 17.5 15.75H14.9625C14.5489 15.7501 14.1487 15.8968 13.8329 16.1639L10.5 18.9788L7.16887 16.1639C6.85262 15.8964 6.45172 15.7497 6.0375 15.75H3.5C3.03587 15.75 2.59075 15.5656 2.26256 15.2374C1.93437 14.9092 1.75 14.4641 1.75 14V3.5C1.75 3.03587 1.93437 2.59075 2.26256 2.26256C2.59075 1.93437 3.03587 1.75 3.5 1.75H17.5C17.9641 1.75 18.4092 1.93437 18.7374 2.26256C19.0656 2.59075 19.25 3.03587 19.25 3.5V14Z"
            fill="#1575FF" />
        <path
            d="M6.125 6.125H10.5C10.7321 6.125 10.9546 6.03281 11.1187 5.86872C11.2828 5.70462 11.375 5.48206 11.375 5.25C11.375 5.01794 11.2828 4.79538 11.1187 4.63128C10.9546 4.46719 10.7321 4.375 10.5 4.375H6.125C5.89294 4.375 5.67038 4.46719 5.50628 4.63128C5.34219 4.79538 5.25 5.01794 5.25 5.25C5.25 5.48206 5.34219 5.70462 5.50628 5.86872C5.67038 6.03281 5.89294 6.125 6.125 6.125Z"
            fill="#1575FF" />
        <path
            d="M14.875 7.875H6.125C5.89294 7.875 5.67038 7.96719 5.50628 8.13128C5.34219 8.29538 5.25 8.51794 5.25 8.75C5.25 8.98206 5.34219 9.20462 5.50628 9.36872C5.67038 9.53281 5.89294 9.625 6.125 9.625H14.875C15.1071 9.625 15.3296 9.53281 15.4937 9.36872C15.6578 9.20462 15.75 8.98206 15.75 8.75C15.75 8.51794 15.6578 8.29538 15.4937 8.13128C15.3296 7.96719 15.1071 7.875 14.875 7.875Z"
            fill="#1575FF" />
        <path
            d="M14.875 11.375H6.125C5.89294 11.375 5.67038 11.4672 5.50628 11.6313C5.34219 11.7954 5.25 12.0179 5.25 12.25C5.25 12.4821 5.34219 12.7046 5.50628 12.8687C5.67038 13.0328 5.89294 13.125 6.125 13.125H14.875C15.1071 13.125 15.3296 13.0328 15.4937 12.8687C15.6578 12.7046 15.75 12.4821 15.75 12.25C15.75 12.0179 15.6578 11.7954 15.4937 11.6313C15.3296 11.4672 15.1071 11.375 14.875 11.375Z"
            fill="#1575FF" />
    </g>
    <defs>
        <clipPath id="clip0_89_536">
            <rect width="21" height="21" fill="white" />
        </clipPath>
    </defs>
</svg>
