<svg width="16" height="16" viewBox="0 0 16 16" fill="none" xmlns="http://www.w3.org/2000/svg">
    <g clip-path="url(#clip0_29_7682)">
        <path
            d="M8.00261 6.66699C7.47519 6.66699 6.95962 6.82339 6.52109 7.11641C6.08255 7.40942 5.74076 7.8259 5.53893 8.31317C5.33709 8.80044 5.28428 9.33662 5.38718 9.8539C5.49007 10.3712 5.74405 10.8463 6.11699 11.2193C6.48993 11.5922 6.96508 11.8462 7.48236 11.9491C7.99965 12.052 8.53583 11.9992 9.0231 11.7973C9.51037 11.5955 9.92684 11.2537 10.2199 10.8152C10.5129 10.3766 10.6693 9.86108 10.6693 9.33366C10.6693 8.62641 10.3883 7.94814 9.88822 7.44804C9.38813 6.94794 8.70985 6.66699 8.00261 6.66699ZM8.00261 10.667C7.7389 10.667 7.48111 10.5888 7.26185 10.4423C7.04258 10.2958 6.87168 10.0875 6.77077 9.8439C6.66985 9.60027 6.64344 9.33218 6.69489 9.07354C6.74634 8.8149 6.87333 8.57732 7.0598 8.39085C7.24627 8.20438 7.48384 8.07739 7.74249 8.02595C8.00113 7.9745 8.26922 8.0009 8.51285 8.10182C8.75648 8.20274 8.96472 8.37363 9.11123 8.5929C9.25774 8.81216 9.33594 9.06995 9.33594 9.33366C9.33594 9.68728 9.19546 10.0264 8.94541 10.2765C8.69537 10.5265 8.35623 10.667 8.00261 10.667Z"
            fill="#0DB166" />
        <path
            d="M15.024 2.74801L13.252 0.976013C12.9432 0.665575 12.576 0.419466 12.1714 0.251935C11.7669 0.0844031 11.3332 -0.00122304 10.8953 1.31975e-05H3.33333C2.4496 0.00107177 1.60237 0.352601 0.97748 0.977493C0.352588 1.60239 0.00105857 2.44962 0 3.33335L0 12.6667C0.00105857 13.5504 0.352588 14.3976 0.97748 15.0225C1.60237 15.6474 2.4496 15.999 3.33333 16H12.6667C13.5504 15.999 14.3976 15.6474 15.0225 15.0225C15.6474 14.3976 15.9989 13.5504 16 12.6667V5.10468C16.0012 4.66684 15.9156 4.2331 15.7481 3.82858C15.5805 3.42405 15.3344 3.05678 15.024 2.74801ZM11.3333 1.38668V2.00001C11.3333 2.53045 11.1226 3.03915 10.7475 3.41423C10.3725 3.7893 9.86377 4.00001 9.33333 4.00001H6.66667C6.13623 4.00001 5.62753 3.7893 5.25245 3.41423C4.87738 3.03915 4.66667 2.53045 4.66667 2.00001V1.33335H10.8953C11.0429 1.33466 11.1898 1.35255 11.3333 1.38668ZM14.6667 12.6667C14.6667 13.1971 14.456 13.7058 14.0809 14.0809C13.7058 14.456 13.1971 14.6667 12.6667 14.6667H3.33333C2.8029 14.6667 2.29419 14.456 1.91912 14.0809C1.54405 13.7058 1.33333 13.1971 1.33333 12.6667V3.33335C1.33333 2.80291 1.54405 2.29421 1.91912 1.91913C2.29419 1.54406 2.8029 1.33335 3.33333 1.33335V2.00001C3.33439 2.88374 3.68592 3.73097 4.31081 4.35587C4.93571 4.98076 5.78294 5.33229 6.66667 5.33335H9.33333C10.1717 5.33074 10.9781 5.01179 11.5914 4.44026C12.2047 3.86872 12.5797 3.08674 12.6413 2.25068L14.0813 3.69068C14.455 4.0666 14.6653 4.57468 14.6667 5.10468V12.6667Z"
            fill="#0DB166" />
    </g>
    <defs>
        <clipPath id="clip0_29_7682">
            <rect width="16" height="16" fill="white" />
        </clipPath>
    </defs>
</svg>
