<svg width="36" height="36" viewBox="0 0 36 36" fill="none" xmlns="http://www.w3.org/2000/svg">
    <circle cx="18" cy="18" r="18" fill="#D0E3FF" />
    <g clip-path="url(#clip0_29_7385)">
        <path
            d="M17.7671 17.7812L16.3225 19.1816C16.0758 19.4284 15.7484 19.5525 15.4202 19.5525C15.0889 19.5525 14.756 19.426 14.5023 19.1731L13.974 18.6657C13.6652 18.3685 13.6551 17.8774 13.9522 17.5686C14.2494 17.2598 14.7413 17.2505 15.0493 17.5469L15.4163 17.8999L16.6871 16.6679C16.9944 16.3707 17.4855 16.3769 17.7842 16.6849C18.0821 16.9922 18.0752 17.4825 17.7671 17.7812ZM21.1065 21.8793H18.7789C18.3506 21.8793 18.003 22.2269 18.003 22.6552C18.003 23.0835 18.3506 23.431 18.7789 23.431H21.1065C21.5347 23.431 21.8823 23.0835 21.8823 22.6552C21.8823 22.2269 21.5347 21.8793 21.1065 21.8793ZM21.1065 12.569H18.7789C18.3506 12.569 18.003 12.9166 18.003 13.3448C18.003 13.7731 18.3506 14.1207 18.7789 14.1207H21.1065C21.5347 14.1207 21.8823 13.7731 21.8823 13.3448C21.8823 12.9166 21.5347 12.569 21.1065 12.569ZM21.1065 17.2241H19.5547C19.1265 17.2241 18.7789 17.5717 18.7789 18C18.7789 18.4283 19.1265 18.7759 19.5547 18.7759H21.1065C21.5347 18.7759 21.8823 18.4283 21.8823 18C21.8823 17.5717 21.5347 17.2241 21.1065 17.2241ZM15.2875 21.4914C14.6451 21.4914 14.1237 22.0128 14.1237 22.6552C14.1237 23.2976 14.6451 23.819 15.2875 23.819C15.9299 23.819 16.4513 23.2976 16.4513 22.6552C16.4513 22.0128 15.9299 21.4914 15.2875 21.4914ZM15.2875 14.5086C15.9299 14.5086 16.4513 13.9873 16.4513 13.3448C16.4513 12.7024 15.9299 12.181 15.2875 12.181C14.6451 12.181 14.1237 12.7024 14.1237 13.3448C14.1237 13.9873 14.6451 14.5086 15.2875 14.5086ZM25.7616 12.569V23.431C25.7616 25.5701 24.0214 27.3104 21.8823 27.3104H14.1237C11.9846 27.3104 10.2444 25.5701 10.2444 23.431V12.569C10.2444 10.4299 11.9846 8.68967 14.1237 8.68967H21.8823C24.0214 8.68967 25.7616 10.4299 25.7616 12.569ZM24.2099 12.569C24.2099 11.2857 23.1656 10.2414 21.8823 10.2414H14.1237C12.8404 10.2414 11.7961 11.2857 11.7961 12.569V23.431C11.7961 24.7143 12.8404 25.7586 14.1237 25.7586H21.8823C23.1656 25.7586 24.2099 24.7143 24.2099 23.431V12.569Z"
            fill="#1575FF" />
    </g>
    <defs>
        <clipPath id="clip0_29_7385">
            <rect width="18.6207" height="18.6207" fill="white"
                transform="translate(8.6897 8.68967)" />
        </clipPath>
    </defs>
</svg>
